<svg width="120" height="116" viewBox="0 0 120 116" fill="none" xmlns="http://www.w3.org/2000/svg">
<rect width="119.902" height="115.902" rx="24" fill="#00264D"/>
<path d="M69.9349 37.9837V77.9186C69.9349 79.8932 70.5204 81.8235 71.6175 83.4653C72.7145 85.1071 74.2737 86.3867 76.098 87.1424C77.9223 87.898 79.9297 88.0957 81.8663 87.7105C83.803 87.3253 85.5819 86.3744 86.9782 84.9782C88.3744 83.5819 89.3253 81.803 89.7105 79.8663C90.0957 77.9297 89.898 75.9223 89.1424 74.098C88.3867 72.2737 87.1071 70.7145 85.4653 69.6175C83.8235 68.5204 81.8932 67.9349 79.9186 67.9349H39.9837C38.0091 67.9349 36.0789 68.5204 34.4371 69.6175C32.7953 70.7145 31.5156 72.2737 30.76 74.098C30.0043 75.9223 29.8066 77.9297 30.1918 79.8663C30.5771 81.803 31.5279 83.5819 32.9242 84.9782C34.3204 86.3744 36.0993 87.3253 38.036 87.7105C39.9727 88.0957 41.98 87.898 43.8043 87.1424C45.6286 86.3867 47.1879 85.1071 48.2849 83.4653C49.3819 81.8235 49.9674 79.8932 49.9674 77.9186V37.9837C49.9674 36.0091 49.3819 34.0789 48.2849 32.4371C47.1879 30.7953 45.6286 29.5156 43.8043 28.76C41.98 28.0043 39.9727 27.8066 38.036 28.1918C36.0993 28.5771 34.3204 29.5279 32.9242 30.9242C31.5279 32.3204 30.5771 34.0993 30.1918 36.036C29.8066 37.9727 30.0043 39.98 30.76 41.8043C31.5156 43.6286 32.7953 45.1879 34.4371 46.2849C36.0789 47.3819 38.0091 47.9674 39.9837 47.9674H79.9186C81.8932 47.9674 83.8235 47.3819 85.4653 46.2849C87.1071 45.1879 88.3867 43.6286 89.1424 41.8043C89.898 39.98 90.0957 37.9727 89.7105 36.036C89.3253 34.0993 88.3744 32.3204 86.9782 30.9242C85.5819 29.5279 83.803 28.5771 81.8663 28.1918C79.9297 27.8066 77.9223 28.0043 76.098 28.76C74.2737 29.5156 72.7145 30.7953 71.6175 32.4371C70.5204 34.0789 69.9349 36.0091 69.9349 37.9837Z" stroke="white" stroke-width="6" stroke-linecap="round" stroke-linejoin="round"/>
</svg>
