<svg xmlns="http://www.w3.org/2000/svg" viewBox="0 0 64 64" role="img" aria-label="دان‌پلی" fill="none">
  <title>دان‌پلی</title>
  <rect width="64" height="64" rx="18" fill="hsl(210,100%,30%)"/>
  <!-- Command (⌘) style symbol simplified for small size clarity -->
  <path fill="#fff" d="M22 18c-4 0-6 2.2-6 6v4c0 1.8 1.2 3.3 2.8 4A5.98 5.98 0 0 0 16 38v4c0 3.8 2 6 6 6s6-2.2 6-6v-2h8v2c0 3.8 2 6 6 6s6-2.2 6-6v-4c0-2.5-1.3-4.2-2.8-5 1.6-.7 2.8-2.2 2.8-4v-4c0-3.8-2-6-6-6s-6 2.2-6 6v2h-8v-2c0-3.8-2-6-6-6Zm0 4c1.6 0 2 .6 2 2v4c0 1.4-.4 2-2 2s-2-.6-2-2v-4c0-1.4.4-2 2-2Zm20 0c1.6 0 2 .6 2 2v4c0 1.4-.4 2-2 2s-2-.6-2-2v-4c0-1.4.4-2 2-2ZM22 34c1.6 0 2 .6 2 2v4c0 1.4-.4 2-2 2s-2-.6-2-2v-4c0-1.4.4-2 2-2Zm20 0c1.6 0 2 .6 2 2v4c0 1.4-.4 2-2 2s-2-.6-2-2v-4c0-1.4.4-2 2-2Zm-14-4h8v4h-8v-4Z"/>
</svg>
